#!OML:ASF I:\Actors\actors\Patient Classification 1\Patient 1\Session 1\Subject1.ASF
:FULLY-SPECIFIED
:DEGREES
2342
root 0.191964 17.5848 8.3051 11.3734 8.01159 -12.1058
lowerback 4.00279 5.44197 1.22384
upperback -6.65538 7.21869 -3.05406
thorax -8.70963 3.35332 -4.71595
lowerneck -17.1229 -0.99273 -2.19749
upperneck 16.821 -3.26211 12.407
head 8.33246 -0.399774 4.16248
rclavicle -3.22031e-014 3.02153e-014
rhumerus 50.0822 27.4454 -60.2933
rradius 79.1009
rwrist 31.9729
rhand -22.9612 -87.7443
rfingers 7.12502
rthumb 3.48059 -602.304
lclavicle -3.22031e-014 3.02153e-014
lhumerus 36.3563 -15.9775 65.1221
lradius 78.488
lwrist -51.621
lhand -69.6954 5.63489
lfingers 7.12502
lthumb -41.323 30.4478
rfemur -8.2104 18.736 25.2602
rtibia 4.69116
rfoot -15.0933 -27.7365
rtoes 5.16175
lfemur -1.38439 -59.9589 -1.95138
ltibia -4.96156
lfoot -31.7091 62.1044
ltoes 16.6453
2343
root 0.193103 17.5838 8.30012 11.3762 8.18067 -12.0643
lowerback 3.96816 5.48182 1.21053
upperback -6.58181 7.28589 -2.86235
thorax -8.62962 3.39761 -4.50283
lowerneck -17.319 -1.28439 -2.79788
upperneck 16.9406 -3.578 12.6576
head 8.44788 -0.553401 4.31785
rclavicle -7.27552e-014 -1.59028e-014
rhumerus 48.5691 27.3788 -62.519
rradius 78.8861
rwrist 34.0524
rhand -23.9963 -83.8986
rfingers 7.12502
rthumb 2.4809 -606.136
lclavicle -7.27552e-014 -1.59028e-014
lhumerus 36.0045 -16.297 66.0256
lradius 78.9015
lwrist -52.2162
lhand -69.6571 -9.85762
lfingers 7.12502
lthumb -41.287 14.9669
rfemur -8.23661 18.6881 25.2058
rtibia 4.72607
rfoot -15.111 -27.8158
rtoes 5.28152
lfemur -1.54307 -60.1421 -1.86009
ltibia -4.93894
lfoot -31.7294 62.1459
ltoes 16.6977
2344
root 0.193636 17.5828 8.29607 11.4022 8.43735 -12.0597
lowerback 3.89966 5.46351 1.26535
upperback -6.50937 7.27553 -2.73128
thorax -8.52102 3.39809 -4.37924
lowerneck -17.3319 -1.43743 -2.78822
upperneck 16.8636 -3.78535 12.654
head 8.4428 -0.653233 4.28697
rclavicle -3.35946e-014 3.97569e-014
rhumerus 47.0491 27.1897 -64.625
rradius 78.7437
rwrist 36.3547
rhand -25.4741 -80.751
rfingers 7.12502
rthumb 1.05365 -609.272
lclavicle -3.35946e-014 3.97569e-014
lhumerus 35.6227 -16.6855 66.8336
lradius 79.3053
lwrist -52.6476
lhand -69.3533 -23.5141
lfingers 7.12502
lthumb -41.0018 1.40173
rfemur -8.28981 18.6764 25.1958
rtibia 4.76505
rfoot -15.1896 -28.0002
rtoes 5.42734
lfemur -1.93797 -60.0306 -1.52623
ltibia -4.91806
lfoot -31.085 61.9518
ltoes 16.2574
2345
root 0.193219 17.5809 8.29185 11.4369 8.77697 -12.0345
lowerback 3.87837 5.41861 1.34516
upperback -6.45545 7.22781 -2.65076
thorax -8.45369 3.3751 -4.32631
lowerneck -17.3622 -1.62815 -2.65379
upperneck 16.7595 -4.05291 12.5398
head 8.43216 -0.784914 4.1882
rclavicle -1.68967e-014 -2.38542e-014
rhumerus 45.5137 26.8921 -66.5066
rradius 78.8343
rwrist 38.6939
rhand -26.9421 -78.5474
rfingers 7.12502
rthumb -0.364182 -611.473
lclavicle -1.68967e-014 -2.38542e-014
lhumerus 35.1688 -17.1723 67.6977
lradius 79.678
lwrist -52.7254
lhand -68.4228 -34.0426
lfingers 7.12502
lthumb -40.1271 -8.85504
rfemur -8.3411 18.6817 25.1672
rtibia 4.79199
rfoot -15.3996 -28.2539
rtoes 6.00001
lfemur -2.44206 -59.852 -1.11292
ltibia -4.916
lfoot -29.8348 61.7485
ltoes 15.2743
2346
root 0.192833 17.5789 8.28846 11.4285 9.10623 -11.9513
lowerback 3.89318 5.35311 1.2798
upperback -6.38508 7.14615 -2.4884
thorax -8.42011 3.34626 -4.10884
lowerneck -17.3623 -1.83499 -2.78985
upperneck 16.6458 -4.28548 12.4978
head 8.41504 -0.91252 4.16441
rclavicle 3.63776e-014 4.45278e-014
rhumerus 44.179 26.7123 -67.8721
rradius 79.0166
rwrist 40.7523
rhand -28.0692 -76.8057
rfingers 7.12502
rthumb -1.4527 -613.22
lclavicle 3.63776e-014 4.45278e-014
lhumerus 34.5976 -17.6291 68.7389
lradius 79.9439
lwrist -52.14
lhand -66.7377 -40.603
lfingers 7.12502
lthumb -38.5394 -14.9526
rfemur -8.30131 18.6048 25.0916
rtibia 4.76058
rfoot -15.5552 -28.4511
rtoes 6.61183
lfemur -2.76099 -59.8582 -0.931892
ltibia -4.90321
lfoot -28.9337 61.6467
ltoes 14.5186
